<svg width="29" height="33" viewBox="0 0 29 33" fill="none" xmlns="http://www.w3.org/2000/svg">
<path d="M28.3386 0L25.7569 28.9218L14.152 32.1391L2.57899 28.9264L0 0H28.3386Z" fill="#264DE4"/>
<path d="M23.5468 27.0804L25.753 2.36536H14.1694V29.6802L23.5468 27.0804Z" fill="#2965F1"/>
<path d="M5.91234 13.0936L6.23031 16.6413H14.1694V13.0936H5.91234ZM14.1694 5.91296H5.27344L5.59594 9.4607H14.1694V5.91296ZM14.1694 25.9985V22.3074L14.1538 22.3115L10.2027 21.2446L9.95016 18.4152H6.38883L6.88586 23.9856L14.1531 26.003L14.1694 25.9985Z" fill="#EBEBEB"/>
<path d="M18.5043 16.637L18.0925 21.2381L14.1357 22.3061V25.997L21.4087 23.9813L21.4621 23.3819L22.2958 14.042L22.3823 13.0893L23.0228 5.90869H14.1357V9.45643H19.1348L18.812 13.0893H14.1357V16.637H18.5043Z" fill="white"/>
</svg>
