<svg width="29" height="33" viewBox="0 0 29 33" fill="none" xmlns="http://www.w3.org/2000/svg">
<path d="M2.57899 28.9264L0 0H28.3386L25.7569 28.9218L14.152 32.1391L2.57899 28.9264Z" fill="#E44D26"/>
<path d="M14.1694 29.6802L23.5468 27.0804L25.753 2.36536H14.1694V29.6802Z" fill="#F16529"/>
<path d="M14.1694 13.0936H9.47485L9.15063 9.4607H14.1694V5.91296H5.27344L5.35836 6.86476L6.23031 16.6413H14.1694V13.0936ZM14.1694 22.3074L14.1538 22.3115L10.2027 21.2446L9.95016 18.4152H6.38883L6.88586 23.9856L14.1531 26.003L14.1694 25.9985V22.3074Z" fill="#EBEBEB"/>
<path d="M14.1572 13.0936V16.6413H18.5258L18.114 21.2424L14.1572 22.3103V26.0013L21.4302 23.9856L21.4836 23.3862L22.3172 14.0463L22.4038 13.0936H21.4478H14.1572ZM14.1572 5.91296V9.46071H22.7266L22.7978 8.66328L22.9594 6.86476L23.0443 5.91296H14.1572Z" fill="white"/>
</svg>
