<svg width="32" height="32" viewBox="0 0 32 32" fill="none" xmlns="http://www.w3.org/2000/svg">
<g clip-path="url(#clip0_5_6)">
<path d="M0 0V32H32V0H0ZM17.1429 24.8571C17.1429 27.9721 15.3029 29.4907 12.6393 29.4907C10.2336 29.4907 8.83714 28.245 8.12857 26.7414L10.5771 25.2593C11.0493 26.0971 11.4079 26.8057 12.4386 26.8057C13.2957 26.8057 14 26.4193 14 24.9157V14.8571H17.1429V24.8571ZM24.2393 29.4193C21.4471 29.4193 19.6429 28.1593 18.7621 26.4193L21.2143 25C21.8571 26.0529 22.6964 26.7543 24.1786 26.7543C25.4243 26.7543 26.1479 26.2029 26.1479 25.3436C26.1479 24.3129 25.4029 23.9479 24.0279 23.3436L23.2764 23.0207C21.1064 22.0979 19.6679 20.9379 19.6679 18.4886C19.6679 16.2336 21.3857 14.5864 24.0707 14.5864C25.9829 14.5864 27.3564 15.1807 28.3457 16.9207L26 18.4286C25.4843 17.505 24.9286 17.1429 24.0671 17.1429C23.1864 17.1429 22.6279 17.7014 22.6279 18.4286C22.6279 19.3307 23.1864 19.6957 24.475 20.2543L25.2264 20.5764C27.7829 21.6721 29.2221 22.7907 29.2221 25.3021C29.2229 28.0093 27.0964 29.4193 24.2393 29.4193Z" fill="#FFC928"/>
</g>
<defs>
<clipPath id="clip0_5_6">
<rect width="32" height="32" rx="3" fill="white"/>
</clipPath>
</defs>
</svg>
