<svg width="36" height="32" viewBox="0 0 36 32" fill="none" xmlns="http://www.w3.org/2000/svg">
<path d="M11.0384 4.12411C8.80713 7.32491 8.93521 11.5904 10.6676 14.9596C10.9544 15.5278 11.281 16.075 11.6451 16.5971C11.9644 17.1228 12.3445 17.609 12.7776 18.0459C12.9326 18.2211 13.1011 18.3895 13.2764 18.5647C13.3169 18.6052 13.364 18.6456 13.4045 18.6928L13.9168 19.1645C14.1056 19.3329 14.301 19.5014 14.51 19.6564L14.6448 19.7642L15.265 20.2224C15.3526 20.2898 15.4538 20.3505 15.5481 20.4111L15.6829 20.4987C15.8312 20.5998 15.9863 20.6941 16.1413 20.7817H16.2087C16.3368 20.8626 16.4784 20.9434 16.6132 21.0108L16.7615 21.0917L17.0446 21.2399H17.0918L17.6783 21.5162L17.8131 21.5701L18.2985 21.7655L18.5074 21.8397L18.9591 21.9946L19.1613 22.062C19.3814 22.1403 19.6067 22.2033 19.8354 22.2507C31.2951 24.151 33.9511 15.3235 33.9511 15.3235C31.5647 18.7602 26.9404 20.3976 22.0127 19.1173C21.7903 19.0634 21.5746 18.996 21.3386 18.9286L21.1499 18.868L20.6915 18.713L20.4825 18.6321L19.9972 18.4367L19.8691 18.3828L19.2692 18.1065L18.9658 17.9515L18.8445 17.9448C18.7097 17.8774 18.5883 17.8033 18.4602 17.7292L18.3793 17.655C18.2243 17.5607 18.0625 17.4664 17.921 17.372L17.7794 17.2777L17.4963 17.1092L16.8828 16.6577L16.7413 16.5432C14.529 14.8483 12.8835 12.5221 12.0226 9.87206C11.575 8.50599 11.4169 7.0617 11.5585 5.6312C11.7001 4.2007 12.1382 2.81537 12.845 1.56348" fill="#0060A9"/>
<path d="M3.98649 5.61773C0.605539 9.61468 0.395885 15.2373 2.48973 19.8343C2.83532 20.609 3.23808 21.3599 3.695 22.0814C4.08958 22.8033 4.57195 23.4792 5.13213 24.0951C5.33098 24.3403 5.54911 24.578 5.77597 24.8252C5.82833 24.8822 5.89002 24.9399 5.94176 25.0058L6.60856 25.6752C6.85471 25.9148 7.11019 26.155 7.38557 26.3788L7.56252 26.5335L8.37994 27.1954C8.4952 27.2924 8.62975 27.3818 8.75497 27.4706L8.93375 27.5987C9.12999 27.7458 9.33618 27.8847 9.54298 28.0147L9.63635 28.0212C9.80641 28.1398 9.99515 28.2596 10.1758 28.3611L10.3738 28.4817L10.7525 28.7037L10.8179 28.7082L11.6051 29.1276L11.787 29.2114L12.4415 29.5147L12.7242 29.6322L13.3357 29.8792L13.6097 29.9871C13.9075 30.111 14.2138 30.2154 14.5263 30.2996C30.2266 33.8933 34.7063 22.5361 34.7063 22.5361C31.0892 26.8285 24.5355 28.5407 17.8264 26.3862C17.5232 26.294 17.2305 26.1848 16.9099 26.0736L16.6539 25.9758L16.0331 25.7282L15.751 25.6019L15.0965 25.2985L14.924 25.2154L14.118 24.7947L13.7119 24.5619L13.5445 24.5414C13.3639 24.4399 13.2025 24.3309 13.0319 24.2211L12.9265 24.1159C12.7204 23.977 12.5048 23.8375 12.3173 23.6999L12.1298 23.5623L11.7529 23.3137L10.9443 22.6613L10.7586 22.4971C7.84816 20.0566 5.78015 16.8397 4.8281 13.272C4.33209 11.4325 4.24424 9.51768 4.57017 7.64967C4.89609 5.78166 5.62864 4.00137 6.72113 2.42223" fill="#0060A9"/>
<path d="M19.0536 1.3477C18.4248 2.28915 18.046 3.37505 17.9528 4.50322C17.8596 5.63138 18.0552 6.76469 18.5211 7.79646C19.0159 8.91714 19.7328 9.92599 20.6283 10.7622C21.5239 11.5983 22.5796 12.2445 23.7318 12.6617L24.015 12.7627L24.143 12.8032C24.2779 12.8436 24.4127 12.8975 24.5475 12.9245C30.884 14.1441 32.5963 9.66977 33.0614 9.01613C31.5514 11.1792 29.0168 11.7115 25.9227 10.9501C25.6693 10.8847 25.4195 10.806 25.1744 10.7142C24.8693 10.6064 24.5701 10.4827 24.2779 10.3436C23.7279 10.0805 23.2062 9.76215 22.7207 9.39349C19.9434 7.28433 18.2177 3.26818 20.0243 0" fill="#0060A9"/>
</svg>
