<svg width="33" height="32" viewBox="0 0 33 32" fill="none" xmlns="http://www.w3.org/2000/svg">
<path d="M31.6545 4.71483L17.0804 30.7758C16.7795 31.3139 16.0064 31.3171 15.701 30.7816L0.83795 4.71729C0.505118 4.13384 1.00413 3.42699 1.66536 3.54533L16.2551 6.15309C16.3481 6.16972 16.4434 6.16957 16.5365 6.15261L30.8211 3.54905C31.4801 3.42889 31.9814 4.13012 31.6545 4.71483Z" fill="url(#paint0_linear_6_53)"/>
<path d="M23.2052 0.124709L12.4199 2.23806C12.3337 2.25494 12.2556 2.29997 12.1978 2.36608C12.1401 2.43219 12.1059 2.51563 12.1007 2.60328L11.4372 13.8084C11.4216 14.0723 11.664 14.2771 11.9216 14.2177L14.9244 13.5247C15.2053 13.4599 15.4592 13.7074 15.4014 13.9899L14.5093 18.3585C14.4493 18.6525 14.7253 18.9039 15.0124 18.8167L16.8671 18.2532C17.1546 18.1659 17.4309 18.418 17.3701 18.7123L15.9523 25.5743C15.8636 26.0035 16.4345 26.2376 16.6726 25.8696L16.8317 25.6238L25.6201 8.08495C25.7673 7.79132 25.5135 7.45643 25.191 7.51861L22.1001 8.1152C21.8097 8.1712 21.5625 7.90071 21.6445 7.61651L23.6619 0.623164C23.7439 0.338491 23.4959 0.0677582 23.2052 0.124709Z" fill="url(#paint1_linear_6_53)"/>
<defs>
<linearGradient id="paint0_linear_6_53" x1="0.475033" y1="2.61383" x2="18.6136" y2="27.2475" gradientUnits="userSpaceOnUse">
<stop stop-color="#41D1FF"/>
<stop offset="1" stop-color="#BD34FE"/>
</linearGradient>
<linearGradient id="paint1_linear_6_53" x1="15.4179" y1="0.698505" x2="18.6991" y2="23.2071" gradientUnits="userSpaceOnUse">
<stop stop-color="#FFEA83"/>
<stop offset="0.0833333" stop-color="#FFDD35"/>
<stop offset="1" stop-color="#FFA800"/>
</linearGradient>
</defs>
</svg>
