<svg width="43" height="32" viewBox="0 0 43 32" fill="none" xmlns="http://www.w3.org/2000/svg">
<path d="M30.1957 24.1625C30.0624 24.0624 30.0791 23.7538 30.5291 22.7865C30.7043 22.403 31.1045 21.761 31.7967 21.1522C31.88 21.4024 31.9303 21.6441 31.9217 21.8693C31.9135 23.3702 30.8463 23.929 30.1957 24.1625ZM24.4921 25.4633C24.3087 25.5552 24.1418 25.6218 24.0669 25.5719C24.0084 25.5384 24.1418 25.4134 24.1418 25.4134C24.1418 25.4134 25.0674 24.421 25.4343 23.9625C25.6428 23.6957 25.8928 23.3871 26.1597 23.0369V23.137C26.1597 24.3375 25.009 25.1381 24.4921 25.4633ZM17.0956 21.9277C16.6704 22.9701 15.7698 25.6467 15.2278 25.4968C14.7607 25.3716 14.4773 23.3453 15.136 21.344C15.4695 20.3349 16.1783 19.1343 16.5952 18.6673C17.2708 17.9167 18.0045 17.6665 18.1881 17.9751C18.4048 18.3754 17.3625 21.2774 17.0956 21.9277ZM8.13153 28.0232C6.90573 29.3659 5.17964 29.8744 4.44583 29.4408C3.65367 28.9823 3.96209 27.0059 5.47148 25.5801C6.38876 24.7129 7.58119 23.9123 8.36502 23.4203C8.54013 23.312 8.80696 23.1535 9.12384 22.9618C9.17387 22.9285 9.20724 22.9117 9.20724 22.9117C9.26559 22.8784 9.3323 22.8366 9.399 22.7949C9.9577 24.8295 9.42404 26.6141 8.13153 28.0232ZM36.7499 18.3754C35.2573 18.3839 33.9648 18.7424 32.8808 19.2761C32.4806 18.484 32.0801 17.7917 32.0136 17.2749C31.9387 16.6744 31.847 16.3075 31.9387 15.5904C32.0301 14.8732 32.4473 13.8559 32.4473 13.7725C32.4389 13.6974 32.3554 13.3305 31.4966 13.3222C30.6378 13.3138 29.8956 13.489 29.812 13.7141C29.7287 13.9392 29.5619 14.4562 29.4537 14.9899C29.3036 15.7738 27.7359 18.5506 26.8436 20.0099C26.5515 19.4427 26.3017 18.9425 26.2514 18.5421C26.1765 17.9418 26.0847 17.5748 26.1765 16.8578C26.2681 16.1406 26.6851 15.1233 26.6851 15.04C26.6767 14.9649 26.5934 14.598 25.7346 14.5897C24.8756 14.5813 24.1336 14.7564 24.0501 14.9816C23.9668 15.2067 23.8751 15.7404 23.6917 16.2574C23.5164 16.7744 21.4318 21.4107 20.8897 22.6199C20.6146 23.2369 20.3728 23.7289 20.1976 24.0624C20.0225 24.3959 20.1894 24.0875 20.1726 24.1208C20.0225 24.4043 19.9392 24.5628 19.9392 24.5628V24.5711C19.8224 24.7797 19.6974 24.9796 19.6388 24.9796C19.5971 24.9796 19.5138 24.421 19.6555 23.6539C19.9641 22.0445 20.7145 19.5346 20.7063 19.4429C20.7063 19.4012 20.8479 18.9591 20.2225 18.734C19.6139 18.5089 19.3971 18.8841 19.3469 18.8841C19.2969 18.8841 19.2552 19.0177 19.2552 19.0177C19.2552 19.0177 19.9306 16.1909 17.9628 16.1909C16.7287 16.1909 15.0276 17.5335 14.1853 18.7591C13.6517 19.051 12.5176 19.668 11.3168 20.3268C10.8582 20.577 10.3829 20.8438 9.93261 21.0856L9.84097 20.9855C7.4561 18.4421 3.04492 16.641 3.22839 13.2221C3.2951 11.9797 3.72871 8.70254 11.7006 4.7334C18.2297 1.48131 23.4582 2.37336 24.3669 4.35809C25.6595 7.19325 21.5735 12.4633 14.7859 13.2221C12.2009 13.514 10.8416 12.5133 10.4998 12.1381C10.1412 11.7462 10.0912 11.7295 9.95778 11.8046C9.741 11.9213 9.87439 12.2715 9.95778 12.48C10.1579 13.0053 10.9918 13.9392 12.4094 14.4062C13.6518 14.8148 16.6871 15.04 20.3562 13.6224C24.4672 12.0297 27.6775 7.61018 26.7351 3.91625C25.7763 0.15528 19.5389 -1.07882 13.6435 1.01433C10.1328 2.2652 6.33038 4.2164 3.59529 6.77632C0.343194 9.8116 -0.173806 12.4633 0.0429996 13.564C0.801904 17.4916 6.21365 20.0516 8.38171 21.9444C8.27328 22.0027 8.17323 22.0611 8.08151 22.1111C6.99748 22.6448 2.86981 24.8046 1.83581 27.0892C0.668403 29.6743 2.01928 31.5339 2.91986 31.7841C5.70497 32.5596 8.55682 31.1671 10.0995 28.8739C11.6337 26.5807 11.4504 23.6039 10.7416 22.2447L10.7164 22.1946L11.567 21.6943C12.1174 21.3691 12.6594 21.0689 13.1347 20.8103C12.8679 21.5358 12.6761 22.3946 12.5761 23.6454C12.4593 25.113 13.0597 27.0143 13.8519 27.7647C14.2021 28.0898 14.6191 28.0982 14.8775 28.0982C15.7948 28.0982 16.2117 27.3394 16.6704 26.4306C17.2373 25.3215 17.7377 24.0373 17.7377 24.0373C17.7377 24.0373 17.1123 27.5145 18.8218 27.5145C19.4472 27.5145 20.0725 26.7057 20.3561 26.2888V26.2972C20.3561 26.2972 20.3728 26.2721 20.4061 26.2137C20.4411 26.1619 20.4744 26.1092 20.5062 26.0554V26.0386C20.7564 25.605 21.315 24.6128 22.1489 22.9701C23.2244 20.852 24.2586 18.2003 24.2586 18.2003C24.2586 18.2003 24.3587 18.8508 24.6671 19.9182C24.8506 20.5519 25.2509 21.2439 25.5593 21.9193C25.3093 22.2696 25.1591 22.4697 25.1591 22.4697L25.1673 22.4781C24.9674 22.745 24.7421 23.0285 24.5088 23.312C23.6582 24.3293 22.6409 25.4886 22.5075 25.8221C22.349 26.2138 22.3823 26.5057 22.6909 26.7393C22.916 26.906 23.3163 26.9393 23.7415 26.906C24.5088 26.856 25.0425 26.6642 25.3093 26.5474C25.7261 26.3973 26.2016 26.1722 26.6602 25.8387C27.4939 25.2216 28.0025 24.3461 27.9527 23.1786C27.9276 22.5367 27.7191 21.9029 27.4606 21.3025C27.5358 21.194 27.6107 21.0856 27.6858 20.969C29.0032 19.0426 30.0207 16.9247 30.0207 16.9247C30.0207 16.9247 30.1208 17.5751 30.4291 18.6425C30.5875 19.1845 30.9047 19.7766 31.1881 20.3603C29.954 21.3693 29.1785 22.5367 28.9116 23.3038C28.4197 24.7214 28.8031 25.3636 29.5286 25.5137C29.8539 25.5803 30.3209 25.4302 30.6711 25.2802C31.1045 25.1383 31.6299 24.8965 32.1136 24.538C32.9475 23.921 33.7479 23.062 33.7063 21.9029C33.6811 21.3693 33.5395 20.844 33.3477 20.3436C34.3985 19.91 35.7575 19.6598 37.4838 19.8683C41.1945 20.3019 41.9283 22.62 41.7866 23.5873C41.6449 24.5547 40.8694 25.0884 40.6109 25.2551C40.3522 25.4136 40.2689 25.472 40.2938 25.5886C40.3273 25.7639 40.4441 25.7555 40.6691 25.7222C40.9776 25.6721 42.6203 24.93 42.6871 23.1457C42.7871 20.8522 40.6109 18.3505 36.7499 18.3754Z" fill="#D0469D"/>
</svg>
